<?xml version="1.0" standalone="no"?>
<!DOCTYPE svg PUBLIC "-//W3C//DTD SVG 20010904//EN"
 "http://www.w3.org/TR/2001/REC-SVG-20010904/DTD/svg10.dtd">
<svg version="1.0" xmlns="http://www.w3.org/2000/svg"
 width="256.000000pt" height="256.000000pt" viewBox="0 0 256.000000 256.000000"
 preserveAspectRatio="xMidYMid meet">
<metadata>
Created by potrace 1.14, written by Peter Selinger 2001-2017
</metadata>
<g transform="translate(0.000000,256.000000) scale(0.100000,-0.100000)"
fill="#000000" stroke="none">
<path d="M945 2431 c-318 -96 -588 -320 -735 -611 l-30 -60 253 0 253 0 13 63
c7 34 28 108 46 164 59 178 122 296 217 406 27 31 48 57 46 56 -2 0 -30 -9
-63 -18z"/>
<path d="M1602 2388 c114 -135 216 -357 259 -566 l13 -62 254 0 253 0 -40 78
c-146 279 -440 519 -726 592 -16 4 -39 11 -49 16 -11 4 4 -21 36 -58z"/>
<path d="M1195 2376 c-137 -64 -275 -303 -339 -588 l-6 -28 430 0 c406 0 431
1 426 18 -3 9 -10 37 -15 62 -40 180 -143 382 -241 474 -92 86 -166 104 -255
62z"/>
<path d="M116 1568 c-38 -174 -42 -386 -12 -526 9 -40 16 -75 16 -78 0 -2 121
-4 269 -4 l269 0 -6 73 c-9 91 -9 422 0 505 l7 62 -268 0 -268 0 -7 -32z"/>
<path d="M813 1528 c-11 -84 -9 -462 2 -525 l8 -43 458 0 c430 0 459 1 460 18
0 9 3 28 6 42 8 32 8 487 0 520 -3 14 -6 33 -6 43 -1 16 -30 17 -460 17 l-459
0 -9 -72z"/>
<path d="M1908 1533 c9 -89 9 -419 0 -505 l-7 -68 269 0 268 0 11 48 c33 145
36 361 7 507 -9 44 -16 81 -16 83 0 1 -121 2 -269 2 l-270 0 7 -67z"/>
<path d="M206 748 c110 -221 320 -431 540 -541 56 -28 254 -99 254 -91 0 3
-22 32 -50 64 -109 132 -209 353 -252 560 l-12 60 -253 0 -253 0 26 -52z"/>
<path d="M856 768 c13 -73 95 -293 135 -364 53 -93 138 -188 193 -216 55 -29
137 -29 191 -1 83 44 182 173 244 319 29 68 78 221 87 269 l4 25 -430 0 -429
0 5 -32z"/>
<path d="M1869 783 c-1 -31 -8 -57 -43 -176 -56 -184 -129 -325 -227 -438
l-48 -57 32 8 c128 30 295 112 419 205 147 111 268 256 352 423 l26 52 -255 0
c-236 0 -255 -1 -256 -17z"/>
</g>
</svg>
